<svg width="24" height="25" viewBox="0 0 24 25" fill="none" xmlns="http://www.w3.org/2000/svg">
<path fill-rule="evenodd" clip-rule="evenodd" d="M12 0.347656C18.2597 0.347657 23.399 5.14065 23.9502 11.2568C23.9502 11.2568 23.9502 11.6169 23.9502 11.8477C23.9511 16.7292 24 24.3477 24 24.3477H17.4541V23.0352C15.8173 23.8721 13.9646 24.3477 12 24.3477C5.37258 24.3477 5.15422e-07 18.9751 0 12.3477C0 5.72024 5.37258 0.347656 12 0.347656ZM12 6.89355C8.98754 6.89355 6.5459 9.33519 6.5459 12.3477C6.5459 15.3601 8.98754 17.8018 12 17.8018C15.0125 17.8018 17.4541 15.3601 17.4541 12.3477C17.4541 9.33519 15.0125 6.89356 12 6.89355Z" fill="#2E2C34"/>
</svg>
