<svg width="119" height="30" viewBox="0 0 119 30" fill="none" xmlns="http://www.w3.org/2000/svg">
<path d="M92.3574 23.3398C92.3574 24.3964 92.1568 25.2686 91.7559 25.9561C91.3549 26.6435 90.7759 27.1568 90.0186 27.4941C89.2611 27.8315 88.3409 28 87.2588 28L86.5518 27.9805V25.1641C86.6471 25.1704 86.7333 25.1738 86.8096 25.1738C86.886 25.1802 86.9661 25.1826 87.0488 25.1826C87.7107 25.1826 88.1853 25.0209 88.4717 24.6963C88.758 24.3781 88.9013 23.9101 88.9014 23.293V7.83398H92.3574V23.3398ZM101.794 18.9102H101.946L105.336 7.83398H109.012L103.14 24.2764C102.866 25.0527 102.504 25.7178 102.052 26.2715C101.6 26.8317 101.045 27.258 100.39 27.5508C99.7405 27.8499 98.9642 28 98.0605 28C97.5895 28 97.153 27.9612 96.752 27.8848C96.3574 27.8148 96.0421 27.7322 95.8066 27.6367L96.6084 24.9443C97.1112 25.0907 97.5604 25.1607 97.9551 25.1543C98.3497 25.1479 98.6969 25.0241 98.9961 24.7822C99.3016 24.5467 99.5595 24.1515 99.7695 23.5977L100.065 22.8057L94.7471 7.83398H98.4131L101.794 18.9102ZM36.6934 7.64258C37.3999 7.6426 38.1036 7.72514 38.8037 7.89062C39.5038 8.05614 40.1435 8.33004 40.7227 8.71191C41.3018 9.08741 41.7661 9.59993 42.1162 10.249C42.4727 10.8983 42.6514 11.7106 42.6514 12.6846V22.5H39.3281V20.4854H39.2139C39.0038 20.8926 38.708 21.2745 38.3262 21.6309C37.9507 21.9809 37.4761 22.264 36.9033 22.4805C36.3368 22.6905 35.6711 22.7959 34.9072 22.7959C33.978 22.7959 33.1412 22.6298 32.3965 22.2988C31.6581 21.9615 31.0725 21.4652 30.6396 20.8096C30.2132 20.154 30 19.3458 30 18.3848C30 17.5574 30.1526 16.873 30.458 16.332C30.7636 15.791 31.1806 15.3578 31.709 15.0332C32.2373 14.7086 32.8322 14.4634 33.4941 14.2979C34.1625 14.126 34.8535 14.0022 35.5664 13.9258C36.4256 13.8367 37.1226 13.7565 37.6572 13.6865C38.1919 13.6101 38.5804 13.4955 38.8223 13.3428C39.0705 13.1836 39.1943 12.9384 39.1943 12.6074V12.5508C39.1943 11.8315 38.9812 11.2745 38.5547 10.8799C38.1282 10.4852 37.514 10.2871 36.7119 10.2871C35.8654 10.2872 35.1937 10.4726 34.6973 10.8418C34.2073 11.2109 33.8759 11.6467 33.7041 12.1494L30.4775 11.6914C30.7321 10.8003 31.1518 10.0554 31.7373 9.45703C32.3229 8.85231 33.0391 8.39977 33.8857 8.10059C34.7324 7.79504 35.6685 7.64258 36.6934 7.64258ZM78.9395 7.64258C80.3716 7.64258 81.6128 7.95783 82.6631 8.58789C83.7134 9.21808 84.5257 10.1028 85.0986 11.2422C85.6779 12.3815 85.9668 13.7088 85.9668 15.2236C85.9668 16.7386 85.6779 18.0632 85.0986 19.1963C84.5257 20.3293 83.7134 21.2106 82.6631 21.8408C81.6128 22.4709 80.3716 22.7861 78.9395 22.7861C77.5073 22.7861 76.2661 22.471 75.2158 21.8408C74.1656 21.2107 73.3507 20.3293 72.7715 19.1963C72.1986 18.0632 71.9121 16.7386 71.9121 15.2236C71.9122 13.7088 72.1986 12.3815 72.7715 11.2422C73.3507 10.1028 74.1655 9.21805 75.2158 8.58789C76.2661 7.95774 77.5073 7.64261 78.9395 7.64258ZM66.916 7.83398H69.8096V10.5068H66.916V18.0889C66.916 18.5534 66.986 18.91 67.126 19.1582C67.2724 19.4 67.4638 19.5652 67.6992 19.6543C67.9346 19.7433 68.1953 19.788 68.4814 19.7881C68.6979 19.7881 68.896 19.7721 69.0742 19.7402C69.2586 19.7084 69.3987 19.6797 69.4941 19.6543L70.0762 22.3564C69.8916 22.4201 69.6277 22.4901 69.2842 22.5664C68.9469 22.6428 68.533 22.6875 68.043 22.7002C67.1773 22.7257 66.397 22.595 65.7031 22.3086C65.0095 22.0158 64.4591 21.564 64.0518 20.9531C63.6507 20.342 63.4526 19.5778 63.459 18.6611V10.5068H61.3779V7.83398H63.459V4.32031H66.916V7.83398ZM115.834 7.83398H118.728V10.5068H115.834V18.0889C115.834 18.5534 115.905 18.91 116.045 19.1582C116.191 19.3998 116.382 19.5652 116.617 19.6543C116.853 19.7434 117.114 19.7881 117.4 19.7881C117.617 19.7881 117.814 19.772 117.992 19.7402C118.177 19.7084 118.317 19.6797 118.412 19.6543L118.995 22.3564C118.811 22.4201 118.546 22.49 118.202 22.5664C117.865 22.6428 117.451 22.6875 116.961 22.7002C116.095 22.7256 115.316 22.595 114.622 22.3086C113.928 22.0158 113.377 21.5642 112.97 20.9531C112.569 20.342 112.372 19.5778 112.378 18.6611V10.5068H110.296V7.83398H112.378V4.32031H115.834V7.83398ZM49.583 16.6377C49.5831 17.5669 49.8385 18.3052 50.3477 18.8525C50.8569 19.3998 51.5251 19.6738 52.3525 19.6738C52.8617 19.6738 53.3547 19.549 53.832 19.3008C54.3094 19.0525 54.7013 18.6835 55.0068 18.1934C55.3186 17.697 55.4746 17.0766 55.4746 16.332V7.83398H58.9316V22.5H55.5801V19.8936H55.4268C55.0957 20.7146 54.5513 21.3863 53.7939 21.9082C53.0429 22.43 52.1167 22.6904 51.0156 22.6904C50.0544 22.6904 49.2042 22.4773 48.4658 22.0508C47.734 21.6179 47.1607 20.9909 46.7471 20.1699C46.3334 19.3425 46.127 18.343 46.127 17.1719V7.83398H49.583V16.6377ZM39.2041 15.5107C39.0958 15.5998 38.9112 15.6825 38.6504 15.7588C38.3958 15.8352 38.1092 15.9017 37.791 15.959C37.4728 16.0163 37.1576 16.0678 36.8457 16.1123C36.5339 16.1568 36.2633 16.1947 36.0342 16.2266C35.5186 16.2966 35.0568 16.4112 34.6494 16.5703C34.2423 16.7294 33.921 16.9521 33.6855 17.2383C33.45 17.5184 33.332 17.8816 33.332 18.3271C33.332 18.9637 33.5647 19.4439 34.0293 19.7686C34.4939 20.0931 35.0856 20.2558 35.8047 20.2559C36.4983 20.2559 37.1002 20.1193 37.6094 19.8457C38.1186 19.5656 38.5105 19.1956 38.7842 18.7373C39.0641 18.2791 39.2041 17.7792 39.2041 17.2383V15.5107ZM78.959 10.3828C78.1633 10.3828 77.501 10.5994 76.9727 11.0322C76.4507 11.4651 76.0588 12.0473 75.7979 12.7793C75.5432 13.505 75.416 14.3173 75.416 15.2148C75.4161 16.1058 75.5433 16.9141 75.7979 17.6396C76.0588 18.3653 76.4507 18.9451 76.9727 19.3779C77.501 19.8043 78.1634 20.0176 78.959 20.0176C79.7353 20.0175 80.3844 19.8041 80.9062 19.3779C81.4282 18.9451 81.8167 18.3653 82.0713 17.6396C82.3322 16.9141 82.4629 16.1059 82.4629 15.2148C82.4629 14.3173 82.3323 13.505 82.0713 12.7793C81.8167 12.0474 81.4281 11.465 80.9062 11.0322C80.3844 10.5995 79.7354 10.3829 78.959 10.3828ZM90.6201 2C91.1674 2.0001 91.6352 2.18461 92.0234 2.55371C92.418 2.91652 92.6152 3.35896 92.6152 3.88086C92.6152 4.3964 92.418 4.83884 92.0234 5.20801C91.6352 5.57075 91.1674 5.75185 90.6201 5.75195C90.0664 5.75195 89.5919 5.57074 89.1973 5.20801C88.809 4.83882 88.6143 4.39644 88.6143 3.88086C88.6143 3.35888 88.809 2.91655 89.1973 2.55371C89.5919 2.18456 90.0664 2 90.6201 2Z" fill="#2E2C34"/>
<path fill-rule="evenodd" clip-rule="evenodd" d="M12 3C18.2597 3 23.399 7.79299 23.9502 13.9092C23.9502 13.9092 23.9502 14.2693 23.9502 14.5C23.9511 19.3816 24 27 24 27H17.4541V25.6875C15.8173 26.5245 13.9646 27 12 27C5.37258 27 5.15422e-07 21.6274 0 15C0 8.37258 5.37258 3 12 3ZM12 9.5459C8.98754 9.5459 6.5459 11.9875 6.5459 15C6.5459 18.0125 8.98754 20.4541 12 20.4541C15.0125 20.4541 17.4541 18.0125 17.4541 15C17.4541 11.9875 15.0125 9.5459 12 9.5459Z" fill="#2E2C34"/>
</svg>
