<svg width="256" height="65" viewBox="0 0 256 65" fill="none" xmlns="http://www.w3.org/2000/svg">
<path d="M198.685 52.3619C198.685 54.6351 198.254 56.5119 197.391 57.9908C196.529 59.4696 195.283 60.5718 193.653 61.2975C192.023 62.0233 190.045 62.3864 187.717 62.3864C187.443 62.3863 187.19 62.3795 186.957 62.3658C186.724 62.3658 186.471 62.359 186.197 62.3453V56.2858C186.402 56.2994 186.587 56.3063 186.752 56.3063C186.916 56.3199 187.087 56.3268 187.264 56.3268C188.688 56.3268 189.709 55.9772 190.325 55.2789C190.941 54.5942 191.25 53.5877 191.25 52.2594V19.0035H198.685V52.3619ZM218.985 42.8307H219.314L226.606 19.0035H234.514L221.882 54.3746C221.293 56.0453 220.512 57.4772 219.54 58.6686C218.568 59.8735 217.376 60.7907 215.966 61.4205C214.569 62.0641 212.898 62.3863 210.954 62.3864C209.941 62.3864 209.002 62.3036 208.139 62.1393C207.29 61.9887 206.613 61.8105 206.106 61.6051L207.832 55.8131C208.913 56.1279 209.878 56.2789 210.727 56.2653C211.576 56.2516 212.323 55.9839 212.967 55.4635C213.624 54.9568 214.179 54.108 214.631 52.9166L215.267 51.2115L203.826 19.0035H211.714L218.985 42.8307ZM78.9363 18.5924C80.4562 18.5924 81.9692 18.7706 83.4753 19.1266C84.9816 19.4826 86.3581 20.0716 87.6042 20.8932C88.8503 21.7011 89.8501 22.8032 90.6033 24.1998C91.3701 25.5966 91.7537 27.3429 91.7537 29.4381V50.5543H84.6052V46.2203H84.3591C83.9072 47.0967 83.2705 47.9184 82.449 48.6852C81.6411 49.4383 80.6208 50.0477 79.3884 50.5133C78.1698 50.9652 76.7386 51.191 75.0955 51.191C73.0962 51.191 71.2953 50.8347 69.6931 50.1227C68.1046 49.3969 66.844 48.3291 65.9128 46.9186C64.9954 45.5081 64.5369 43.7685 64.5369 41.7008C64.5369 39.9207 64.8659 38.4487 65.5232 37.2848C66.1805 36.1208 67.077 35.1892 68.2136 34.4908C69.3502 33.7925 70.6313 33.2658 72.0554 32.9098C73.4932 32.5401 74.9789 32.2723 76.5125 32.108C78.3609 31.9163 79.8603 31.746 81.0105 31.5953C82.1607 31.431 82.996 31.1837 83.5164 30.8551C84.0504 30.5128 84.3181 29.986 84.3181 29.274V29.151C84.3181 27.6038 83.8593 26.4053 82.9421 25.5563C82.0246 24.7073 80.7027 24.2828 78.9773 24.2828C77.1562 24.2828 75.7114 24.6792 74.6433 25.4733C73.5889 26.2675 72.8763 27.2059 72.5066 28.2877L65.5642 27.3014C66.1119 25.3846 67.0156 23.7828 68.2751 22.4957C69.535 21.1948 71.0759 20.2224 72.8972 19.5787C74.7185 18.9214 76.7316 18.5924 78.9363 18.5924ZM169.82 18.5924C172.901 18.5924 175.571 19.2701 177.831 20.6256C180.09 21.9813 181.837 23.8853 183.069 26.3365C184.315 28.7877 184.938 31.6429 184.938 34.902C184.938 38.1611 184.315 41.0094 183.069 43.4469C181.837 45.8844 180.09 47.7816 177.831 49.1373C175.571 50.4929 172.901 51.1705 169.82 51.1705C166.739 51.1705 164.069 50.4929 161.809 49.1373C159.55 47.7816 157.797 45.8844 156.551 43.4469C155.318 41.0094 154.702 38.1611 154.702 34.902C154.702 31.6429 155.318 28.7877 156.551 26.3365C157.797 23.8853 159.55 21.9813 161.809 20.6256C164.069 19.2701 166.739 18.5924 169.82 18.5924ZM143.954 19.0035H150.177V24.7545H143.954V41.0641C143.954 42.0637 144.105 42.8308 144.406 43.3649C144.721 43.8852 145.132 44.2415 145.638 44.4332C146.145 44.6249 146.707 44.7203 147.323 44.7203C147.788 44.7203 148.213 44.6862 148.596 44.6178C148.993 44.5494 149.294 44.488 149.5 44.4332L150.753 50.2457C150.356 50.3827 149.787 50.5336 149.048 50.6979C148.322 50.8621 147.432 50.9586 146.378 50.986C144.515 51.0407 142.838 50.7594 141.345 50.1432C139.853 49.5133 138.668 48.5408 137.792 47.2262C136.929 45.9116 136.505 44.2683 136.518 42.2965V24.7545H132.04V19.0035H136.518V11.444H143.954V19.0035ZM249.19 19.0035H255.414V24.7545H249.19V41.0641C249.19 42.0637 249.341 42.8308 249.642 43.3649C249.957 43.8852 250.368 44.2415 250.875 44.4332C251.381 44.6249 251.943 44.7203 252.559 44.7203C253.025 44.7203 253.449 44.6862 253.833 44.6178C254.23 44.5494 254.531 44.488 254.736 44.4332L255.989 50.2457C255.592 50.3827 255.023 50.5336 254.284 50.6979C253.558 50.8621 252.668 50.9586 251.614 50.986C249.752 51.0407 248.074 50.7594 246.582 50.1432C245.089 49.5133 243.904 48.5408 243.028 47.2262C242.165 45.9116 241.741 44.2683 241.755 42.2965V24.7545H237.276V19.0035H241.755V11.444H249.19V19.0035ZM106.667 37.942C106.667 39.9412 107.215 41.53 108.31 42.7076C109.406 43.8853 110.844 44.4742 112.624 44.4742C113.719 44.4742 114.781 44.2075 115.808 43.6735C116.835 43.1394 117.677 42.345 118.335 41.2906C119.006 40.2225 119.341 38.887 119.341 37.2848V19.0035H126.777V50.5543H119.567V44.9469H119.238C118.526 46.7133 117.355 48.158 115.725 49.2809C114.11 50.4036 112.118 50.9654 109.749 50.9655C107.681 50.9655 105.852 50.507 104.263 49.5895C102.689 48.6583 101.456 47.3091 100.566 45.5426C99.6761 43.7624 99.2312 41.6121 99.2312 39.0924V19.0035H106.667V37.942ZM84.3386 35.5182C84.1058 35.7099 83.7086 35.8881 83.1472 36.0524C82.5995 36.2167 81.9832 36.3608 81.2986 36.484C80.6139 36.6073 79.9354 36.7163 79.2644 36.8121C78.5937 36.9079 78.0121 36.9908 77.5193 37.0592C76.4102 37.2098 75.4171 37.4562 74.5408 37.7985C73.6644 38.1408 72.9723 38.6197 72.4656 39.236C71.9589 39.8385 71.7058 40.6192 71.7058 41.5778C71.7058 42.947 72.2054 43.9809 73.2048 44.6793C74.2045 45.3777 75.4787 45.7272 77.0261 45.7272C78.5187 45.7271 79.8125 45.4322 80.908 44.8434C82.0033 44.241 82.8455 43.4473 83.4343 42.4615C84.0369 41.4756 84.3386 40.3999 84.3386 39.236V35.5182ZM169.861 24.4879C168.149 24.4879 166.725 24.9533 165.589 25.8844C164.466 26.8155 163.624 28.0686 163.062 29.6432C162.514 31.2043 162.24 32.9506 162.24 34.8815C162.24 36.7986 162.514 38.5381 163.062 40.0992C163.624 41.6602 164.466 42.9064 165.589 43.8375C166.725 44.755 168.149 45.2135 169.861 45.2135C171.532 45.2135 172.929 44.755 174.052 43.8375C175.174 42.9064 176.01 41.6602 176.557 40.0992C177.119 38.5381 177.4 36.7986 177.4 34.8815C177.4 32.9506 177.119 31.2043 176.557 29.6432C176.01 28.0685 175.174 26.8155 174.052 25.8844C172.929 24.9532 171.532 24.4879 169.861 24.4879ZM194.947 6.45276C196.125 6.45276 197.131 6.85007 197.967 7.64417C198.816 8.42469 199.24 9.37679 199.24 10.4996C199.24 11.6088 198.816 12.5609 197.967 13.3551C197.131 14.1356 196.125 14.526 194.947 14.526C193.756 14.526 192.735 14.1356 191.886 13.3551C191.051 12.5609 190.634 11.6088 190.634 10.4996C190.634 9.37679 191.051 8.42469 191.886 7.64417C192.735 6.85006 193.756 6.45278 194.947 6.45276Z" fill="white"/>
<path fill-rule="evenodd" clip-rule="evenodd" d="M25.8151 8.6051C39.2813 8.6051 50.3374 18.9161 51.5231 32.0736C51.5231 32.0736 51.523 32.8482 51.5231 33.3446C51.525 43.8462 51.6303 60.2354 51.6303 60.2354H37.5483V57.4118C34.0271 59.2124 30.0416 60.2354 25.8151 60.2354C11.5578 60.2354 1.10881e-06 48.6775 0 34.4202C0 20.1629 11.5578 8.6051 25.8151 8.6051ZM25.8151 22.687C19.3345 22.687 14.0819 27.9396 14.0819 34.4202C14.0819 40.9008 19.3345 46.1534 25.8151 46.1534C32.2957 46.1534 37.5483 40.9008 37.5483 34.4202C37.5483 27.9396 32.2957 22.687 25.8151 22.687Z" fill="white"/>
</svg>
